<?xml version="1.0" standalone="no"?>
<!DOCTYPE svg PUBLIC "-//W3C//DTD SVG 20010904//EN"
 "http://www.w3.org/TR/2001/REC-SVG-20010904/DTD/svg10.dtd">
<svg version="1.0" xmlns="http://www.w3.org/2000/svg"
 width="50.000000pt" height="50.000000pt" viewBox="0 0 50.000000 50.000000"
 preserveAspectRatio="xMidYMid meet">

<g transform="translate(0.000000,50.000000) scale(0.100000,-0.100000)"
fill="#000000" stroke="none">
<path d="M0 290 l0 -210 85 0 c50 0 85 4 85 10 0 6 -32 10 -75 10 l-75 0 0
190 0 190 230 0 230 0 0 -190 0 -190 -75 0 c-43 0 -75 -4 -75 -10 0 -6 35 -10
85 -10 l85 0 0 210 0 210 -250 0 -250 0 0 -210z"/>
<path d="M100 400 c0 -6 57 -10 150 -10 93 0 150 4 150 10 0 6 -57 10 -150 10
-93 0 -150 -4 -150 -10z"/>
<path d="M100 350 c0 -6 57 -10 150 -10 93 0 150 4 150 10 0 6 -57 10 -150 10
-93 0 -150 -4 -150 -10z"/>
<path d="M100 300 c0 -6 57 -10 150 -10 93 0 150 4 150 10 0 6 -57 10 -150 10
-93 0 -150 -4 -150 -10z"/>
<path d="M213 250 c-13 -5 -23 -16 -23 -25 0 -8 -4 -15 -10 -15 -11 0 -10 -69
2 -76 4 -3 8 -34 8 -70 0 -35 3 -64 8 -64 4 0 18 7 30 16 20 14 24 14 44 0 12
-9 26 -16 30 -16 5 0 8 28 8 63 0 34 4 77 9 94 10 36 -10 93 -32 93 -7 0 -21
2 -32 5 -11 2 -30 0 -42 -5z m68 -20 c5 0 9 -7 9 -15 0 -8 5 -15 11 -15 13 0
2 -39 -18 -62 -28 -32 -84 -10 -89 36 -4 36 33 70 64 60 8 -2 18 -4 23 -4z m9
-163 c0 -35 -2 -37 -20 -27 -14 8 -26 8 -40 0 -18 -10 -20 -8 -20 24 0 36 7
41 57 41 20 0 23 -5 23 -38z"/>
</g>
</svg>
